<?xml version="1.0" encoding="utf-8"?>
<!-- Generator: Adobe Illustrator 19.0.0, SVG Export Plug-In . SVG Version: 6.00 Build 0)  -->
<svg version="1.1" id="Layer_1" xmlns="http://www.w3.org/2000/svg" xmlns:xlink="http://www.w3.org/1999/xlink" x="0px" y="0px"
	 viewBox="0 0 500 500" style="enable-background:new 0 0 500 500;" xml:space="preserve">
<style type="text/css">
	.st0{fill:#B31C18;}
	.st1{fill:#0D4D84;}
	.st2{fill:url(#XMLID_29_);}
</style>
<g id="XMLID_1_">
	<g id="g23" transform="translate(1.2680321,-0.50721285)">
		<path id="path25" class="st0" d="M407.6,200.7l-44.4,51.8c0.9,1.9,1.6,4.1,2.2,6.4C431.8,222.7,407.6,200.7,407.6,200.7"/>
		<path id="path27" class="st1" d="M149.9,293.3h13.4l2.3-14c2.1,2.8,5.6,4.4,10.8,4.4c9.5,0,17.2-5.5,18.9-14.6
			c1.7-8.9-3.6-14.8-13.4-14.8c-5.1,0-9.9,1.2-13.4,4.3l0.7-3.8l-13.1,0L149.9,293.3L149.9,293.3z M181.6,268.9
			c-0.8,4.3-4,6.8-8.2,6.8c-4.5,0-6.8-2.4-5.9-6.8c0.9-4.7,3.8-7.2,8.4-7.2C180.4,261.7,182.5,264.2,181.6,268.9"/>
		<path id="path29" class="st1" d="M199.7,254.6h14.6l-4.8,28.4h-14.6L199.7,254.6z"/>
		<path id="path31" class="st1" d="M217,283.1l4.3-23.1H216l1.1-5.6h5.3l1-6.4l15.4-3.5l-1.9,9.9h7.5l-1.1,5.6l-7.4,0l-4.6,23
			L217,283.1L217,283.1z"/>
		<path id="path33" class="st1" d="M288,243H303l-6.9,40H281L288,243z"/>
		<path id="path35" class="st1" d="M105.1,273.3c-3.2,1-7.2,1.4-10.7,1.4c-9,0-14.8-2.9-13.3-10.9c1.3-6.8,10.2-11.1,18.1-11.1
			c4,0,8.2,1.2,11.3,2.8l1.5-10.3c-3.5-1.6-8.2-2.5-13.7-2.5c-16.6,0-32,8.3-34.3,21.2c-2.4,13.4,8.9,20.6,25.4,20.6
			c4.5,0,9.3-0.3,13.9-1L105.1,273.3z"/>
		<path id="path37" class="st1" d="M135.3,273.6c-1.3,3.3-6.6,4.2-9.1,4.2c-2.9,0-4.1-0.7-3.7-2.7c0.3-1.7,1.6-2.5,4.7-3.1
			c3.1-0.6,6.3-0.6,8.7-1.6L135.3,273.6z M150.1,266.9c0.7-3.8,1.5-7.5-0.6-9.8c-2.3-2.5-9.1-3.2-16.1-2.9
			c-9.2,0.4-14.1,1.1-16.8,1.9l-2.1,7.5c4.4-1.5,14.1-2.8,17.3-2.5c3.4,0.3,5.6,0.7,5.3,2.3c0,0,0.9,2.8-9.2,4
			c-1.7,0.2-3.8,0.6-6.2,0.6c-6.2,0.2-13.2,3.2-14.1,7.9c-0.9,4.9,3.7,8.3,12.7,8c5-0.2,9.3-1.2,13.5-3.8c0,1,0.2,2.4,0.3,3.3
			l15.1,0.1l-0.2-1.1c-1.3-0.5-1.4-2.4-1-4.9L150.1,266.9L150.1,266.9z"/>
		<path id="path39" class="st1" d="M208.6,252.1c-4.3,0.2-7.8-1.6-7.9-4c-0.1-2.4,3.3-4.5,7.5-4.7c4.2-0.2,7.8,1.6,7.9,4
			C216.3,249.8,212.9,251.9,208.6,252.1"/>
		<path id="path41" class="st1" d="M265,272.9c-1.3,4-6.5,4.9-9,4.9c-2.9,0-4.1-0.7-3.8-2.7c0.3-1.7,1.6-2.5,4.7-3.1
			c3-0.6,6.3-0.6,8.7-1.6L265,272.9z M280,266.9c0.7-3.8,1.4-7.5-0.6-9.8c-2.3-2.5-9.1-3.2-16.1-2.9c-9.2,0.4-14.1,1.1-16.8,1.9
			l-2.1,7.5c4.4-1.5,14.1-2.8,17.3-2.5c3.4,0.3,5.6,0.7,5.3,2.3c0,0,0.9,2.8-9.2,4c-1.7,0.2-3.8,0.6-6.2,0.6
			c-6.2,0.2-13.2,3.2-14.1,7.9c-0.9,4.9,3.7,8.3,12.7,8c5-0.2,9.3-1.2,13.5-3.8c0,1,0.2,2.4,0.3,3.3l15.1,0.1l-0.2-1.1
			c-1.3-0.5-1.4-2.4-1-4.9L280,266.9L280,266.9z"/>
		<path id="path43" class="st1" d="M416.5,264.4c-2.4,10.7-16.9,10.6-16.9,10.6c1.7-6.3,6.4-14.6,13.2-15.5
			C416.8,259,416.6,264.3,416.5,264.4 M352.5,265.5c-0.7,8-2.7,12.5-7.1,17.4c-4,4.6-8,6.5-13,6.5c-10.2,0-15.5-6.9-14.3-20
			c0.8-8.4,3.8-16.2,9.2-21.4c3.5-3.3,6.7-4.6,11.6-4.6C348.4,243.4,353.6,253.1,352.5,265.5 M414,257.6c-4.5,0.2-9,1.7-13.9,6.9
			c-4.8,5.2-6.8,11.2-7.2,16.1c-0.1,0.9,0,1.8,0.1,2.6c-2.8,3-4.4,4.2-5.3,4.2c-0.9,0-1.6-1-1.6-1.7c0.1-0.9,1.3-4.3,2.1-8
			c0,0,3.4-13.3,3.4-14.3c0.2-1.8,0-5.6-2.8-5.5c0,0-4.8-1.9-20.1,14.1c1.3-6.1,2.5-11.3,2.5-11.3c1.3-3.6-1.4-2.2-1.4-2.2
			c-3,1-7.6,2.4-9.4,2.9c0-10.3-6.8-20.4-20.7-20.5c-9.2,0-17.1,4.2-22.7,11.8c-3.6,4.9-6,10.4-6.5,16.1c-1.2,13.6,6,23.1,20.4,22.9
			c8.6-0.1,15-2.8,21-9.1c4.7-5,7.8-11.9,8.4-19c1.9-1.1,3.5-0.5,3.5-0.5c0.9,0,1.4,0.7,1.3,1.7c-0.1,0.6-5.6,25.5-5.7,26.1
			c0,0,3.2-0.1,5.2-0.1c0.6,0,1.6-6.3,2.9-13.2c0.1-0.5,0.2-1,0.3-1.5c6.2-7.2,14-13.5,16.2-13.5c0.9,0,2.3,0.8,1.7,2.9
			c-0.1,0.5-5.9,21.1-6,22.4c-0.1,3,1.8,3.9,3.4,3.9c2.7,0,5.5-1.5,10.1-6.8c1.5,4.2,5.6,6.8,9.9,6.8c5.1,0,10.3-2.4,15.1-9.1
			l-0.9-1.5c-4.3,4.8-6.4,7.1-11.9,7.1c-4.8,0-7.4-3.1-7-7.4c0.1-1.4,0.6-4.1,0.6-4.1c13.3-0.8,21.3-3.2,22.6-12.4
			C422.2,261,419.2,257.4,414,257.6"/>
	</g>
	<linearGradient id="XMLID_29_" gradientUnits="userSpaceOnUse" x1="187.3291" y1="272.8155" x2="403.0367" y2="185.664">
		<stop  offset="0.7291" style="stop-color:#B32517"/>
		<stop  offset="0.7633" style="stop-color:#B4291B"/>
		<stop  offset="0.7989" style="stop-color:#B83528"/>
		<stop  offset="0.835" style="stop-color:#BF483C"/>
		<stop  offset="0.8715" style="stop-color:#C96359"/>
		<stop  offset="0.9083" style="stop-color:#D5877F"/>
		<stop  offset="0.9454" style="stop-color:#E4B2AD"/>
		<stop  offset="0.9821" style="stop-color:#F6E4E2"/>
		<stop  offset="1" style="stop-color:#FFFFFF"/>
	</linearGradient>
	<path id="XMLID_3_" class="st2" d="M163.1,212.8c0,0,192.3-31.1,197,7l0,0c0.7,5.9-1.4,12.4-5.4,19l0,0c3.4,2.8,8.9,8.6,11.7,18.3
		l0,0c29.2-19.6,50.5-40.5,42.5-57l0,0c-5.7-11.9-27.3-16.2-55.5-16.2l0,0C280.4,184,163.1,212.8,163.1,212.8 M253.1,316
		c0,0,27.5-11.4,59.5-27.8l0,0c-1.4-1.7-2.7-3.8-3.7-6.4l0,0C281.4,301.3,253.1,316,253.1,316"/>
	<path id="path207" class="st1" d="M425.6,259.2v-5.4h-2v-0.7h4.8v0.7h-2v5.4H425.6z"/>
	<path id="path209" class="st1" d="M429.2,259.2v-6.1h1.2l1.4,4.3c0.1,0.4,0.2,0.7,0.3,0.9c0.1-0.2,0.2-0.6,0.3-1l1.5-4.2h1.1v6.1
		h-0.8v-5.1l-1.8,5.1h-0.7l-1.8-5.2v5.2H429.2z"/>
</g>
</svg>
