<?xml version="1.0" encoding="utf-8"?>
<!-- Generator: Adobe Illustrator 19.0.0, SVG Export Plug-In . SVG Version: 6.00 Build 0)  -->
<svg version="1.1" id="Layer_1" xmlns="http://www.w3.org/2000/svg" xmlns:xlink="http://www.w3.org/1999/xlink" x="0px" y="0px"
	 viewBox="0 0 500 500" style="enable-background:new 0 0 500 500;" xml:space="preserve">
<style type="text/css">
	.st0{fill:#117ACA;}
	.st1{fill:#211E1E;}
</style>
<g id="XMLID_1_">
	<path id="XMLID_3_" class="st0" d="M388.9,216.1c-1.3,0-2.4,1.1-2.4,2.4v16.8h44.4l-20.2-19.2L388.9,216.1"/>
	<path id="XMLID_4_" class="st0" d="M432.5,240.3c0-1.3-1.1-2.4-2.4-2.4h-16.8v44.4l19.2-20.2L432.5,240.3"/>
	<path id="XMLID_5_" class="st0" d="M408.2,283.9c1.3,0,2.4-1.1,2.4-2.4v-16.8h-44.4l20.2,19.2L408.2,283.9"/>
	<path id="XMLID_6_" class="st0" d="M364.6,259.7c0,1.3,1.1,2.4,2.4,2.4h16.8v-44.4l-19.2,20.2L364.6,259.7"/>
	<polyline id="XMLID_7_" class="st1" points="161.3,224.2 161.3,244.7 132.8,244.7 132.8,224.2 122.4,224.2 122.4,275.8 
		132.8,275.8 132.8,253.6 161.3,253.6 161.3,275.8 171.8,275.8 171.8,224.2 161.3,224.2 	"/>
	<polyline id="XMLID_8_" class="st1" points="299.6,224.2 299.6,275.8 345.2,275.8 339.4,266.7 310,266.7 310,253.6 338.5,253.6 
		338.5,244.9 310,244.9 310,233.1 339.4,233.1 345.1,224.2 299.6,224.2 	"/>
	<path id="XMLID_9_" class="st1" d="M83.8,224.2c-10.8,0-16.3,6.6-16.3,16.1v19.3c0,11.1,7,16.2,16.2,16.2l32.6,0l-6-9.4H85.7
		c-5.2,0-7.5-1.9-7.5-7.7v-17.5c0-5.6,1.9-7.8,7.6-7.8h24.7l5.8-9.2H83.8"/>
	<path id="XMLID_10_" class="st1" d="M254,224.2c-6.2,0-12.6,3.8-12.6,13.4v2.5c0,10.1,6.2,13.9,12.3,13.9h21.6
		c2.2,0,4.1,0.4,4.1,4.2l0,4.4c-0.1,3.4-1.8,4.2-4.1,4.2h-28.5l-5.8,9.1h34.9c8.4,0,14.1-4.2,14.1-13.9v-3.6
		c0-9.4-5.3-13.8-13.6-13.8h-20.6c-2.3,0-3.9-0.6-3.9-4V237c0-2.9,1.1-3.9,3.8-3.9l27.1,0l5.7-8.9L254,224.2"/>
	<path id="XMLID_13_" class="st1" d="M202,224.2l-24.5,51.6H189l4.8-10.7h26.6l4.8,10.7h11.6l-24.5-51.6H202z M207.1,234.9l9.4,21.5
		h-18.8L207.1,234.9"/>
</g>
</svg>
