<?xml version="1.0" encoding="utf-8"?>
<!-- Generator: Adobe Illustrator 19.0.0, SVG Export Plug-In . SVG Version: 6.00 Build 0)  -->
<svg version="1.1" id="Layer_1" xmlns="http://www.w3.org/2000/svg" xmlns:xlink="http://www.w3.org/1999/xlink" x="0px" y="0px"
	 viewBox="0 0 500 500" style="enable-background:new 0 0 500 500;" xml:space="preserve">
<style type="text/css">
	.st0{fill:#003B70;}
	.st1{fill:#D9261C;}
</style>
<g transform="matrix(2.4760713,0,0,2.4760713,-2.9521334,-2.9521466)">
	<path id="XMLID_5_" class="st0" d="M73.7,130.9l-0.3,0.3c-4.2,4.3-9,6.5-14,6.5c-10.4,0-18-7.8-18-18.6c0-10.8,7.6-18.6,18-18.6
		c5,0,9.9,2.3,14,6.6l0.3,0.3l6.7-8.1l-0.2-0.2c-5.6-6.6-12.3-9.8-20.5-9.8c-8.3,0-15.8,2.8-21.3,7.8c-5.9,5.4-9,13.1-9,22.2
		c0,9.1,3.1,16.7,9,22.2c5.4,5,13,7.8,21.3,7.8c8.2,0,14.9-3.2,20.5-9.8l0.2-0.2L73.7,130.9z"/>
	<path id="XMLID_4_" class="st0" d="M87.2,148h11.9V90.1H87.2V148z"/>
	<path id="XMLID_3_" class="st0" d="M145.5,135.4c-3.2,1.9-6.1,2.9-8.8,2.9c-3.8,0-5.6-2-5.6-6.5V101h12.1V90.1h-12.1v-18l-11.6,6.2
		v11.8h-10V101h10v32.7c0,8.9,5.3,15,13.1,15.1c5.3,0.1,8.6-1.5,10.5-2.7l0.1-0.1l2.9-11.2L145.5,135.4L145.5,135.4z"/>
	<path id="XMLID_2_" class="st0" d="M155.3,148h11.9V90.1h-11.9V148z"/>
	<path id="XMLID_6_" class="st1" d="M174.3,79.8c-10.9-15.4-28.9-24.5-47.2-24.5c-18.3,0-36.4,9.2-47.2,24.5l-0.6,0.8H93l0.2-0.2
		c9.3-9.6,21.4-14.7,33.9-14.7c12.5,0,24.6,5.1,33.9,14.7l0.2,0.2h13.7L174.3,79.8L174.3,79.8z"/>
</g>
</svg>
